<?xml version="1.0" encoding="UTF-8" standalone="no"?>
<!DOCTYPE svg PUBLIC "-//W3C//DTD SVG 1.1//EN"
 "http://www.w3.org/Graphics/SVG/1.1/DTD/svg11.dtd">
<!-- Generated by graphviz version 5.0.0 (20220707.1540)
 -->
<!-- Title: eee Pages: 1 -->
<svg width="206pt" height="405pt"
 viewBox="0.00 0.00 206.00 405.00" xmlns="http://www.w3.org/2000/svg" xmlns:xlink="http://www.w3.org/1999/xlink">
<g id="graph0" class="graph" transform="scale(1 1) rotate(0) translate(4 401)">
<title>eee</title>
<polygon fill="white" stroke="transparent" points="-4,4 -4,-401 202,-401 202,4 -4,4"/>
<g id="clust1" class="cluster">
<title>cluster_0</title>
<polygon fill="none" stroke="black" points="8,-8 8,-389 190,-389 190,-8 8,-8"/>
<text text-anchor="middle" x="99" y="-373.8" font-family="Courier New" font-size="14.00">MyClass.foo</text>
</g>
<!-- cluster_0_0 -->
<g id="node1" class="node">
<title>cluster_0_0</title>
<polygon fill="white" stroke="black" points="155,-358 101,-358 101,-322 155,-322 155,-358"/>
<text text-anchor="start" x="109" y="-336.3" font-family="Courier New" font-size="14.00">self</text>
</g>
<!-- cluster_0_2 -->
<g id="node2" class="node">
<title>cluster_0_2</title>
<polygon fill="white" stroke="black" points="161,-285 95,-285 95,-249 161,-249 161,-285"/>
<text text-anchor="start" x="103" y="-263.3" font-family="Courier New" font-size="14.00">b = 10</text>
</g>
<!-- cluster_0_0&#45;&gt;cluster_0_2 -->
<g id="edge1" class="edge">
<title>cluster_0_0&#45;&gt;cluster_0_2</title>
<path fill="none" stroke="black" d="M128,-321.81C128,-313.79 128,-304.05 128,-295.07"/>
<polygon fill="black" stroke="black" points="131.5,-295.03 128,-285.03 124.5,-295.03 131.5,-295.03"/>
</g>
<!-- cluster_0_3 -->
<g id="node3" class="node">
<title>cluster_0_3</title>
<polygon fill="white" stroke="black" points="161,-212 95,-212 95,-176 161,-176 161,-212"/>
<text text-anchor="start" x="103" y="-190.3" font-family="Courier New" font-size="14.00">b &gt; 10</text>
</g>
<!-- cluster_0_2&#45;&gt;cluster_0_3 -->
<g id="edge2" class="edge">
<title>cluster_0_2&#45;&gt;cluster_0_3</title>
<path fill="none" stroke="black" d="M128,-248.81C128,-240.79 128,-231.05 128,-222.07"/>
<polygon fill="black" stroke="black" points="131.5,-222.03 128,-212.03 124.5,-222.03 131.5,-222.03"/>
</g>
<!-- cluster_0_4 -->
<g id="node4" class="node">
<title>cluster_0_4</title>
<polygon fill="white" stroke="black" points="115.5,-125 16.5,-125 16.5,-89 115.5,-89 115.5,-125"/>
<text text-anchor="start" x="24.5" y="-103.3" font-family="Courier New" font-size="14.00">print(&#39;b&#39;)</text>
</g>
<!-- cluster_0_3&#45;&gt;cluster_0_4 -->
<g id="edge3" class="edge">
<title>cluster_0_3&#45;&gt;cluster_0_4</title>
<path fill="none" stroke="black" d="M115.45,-175.8C106.55,-163.59 94.44,-146.99 84.44,-133.28"/>
<polygon fill="black" stroke="black" points="87.25,-131.19 78.53,-125.18 81.59,-135.32 87.25,-131.19"/>
<text text-anchor="middle" x="113.5" y="-146.8" font-family="Times New Roman,serif" font-size="14.00">True</text>
</g>
<!-- cluster_0_1 -->
<g id="node5" class="node">
<title>cluster_0_1</title>
<polygon fill="black" stroke="black" points="136,-52 82,-52 82,-16 136,-16 136,-52"/>
</g>
<!-- cluster_0_3&#45;&gt;cluster_0_1 -->
<g id="edge5" class="edge">
<title>cluster_0_3&#45;&gt;cluster_0_1</title>
<path fill="none" stroke="black" d="M129.76,-175.93C130.27,-170.23 130.75,-163.85 131,-158 132.32,-127.25 131.1,-119.17 125,-89 123.21,-80.14 120.63,-70.64 118.06,-62.12"/>
<polygon fill="black" stroke="black" points="121.31,-60.81 114.98,-52.31 114.64,-62.9 121.31,-60.81"/>
<text text-anchor="middle" x="145" y="-103.3" font-family="Times New Roman,serif" font-size="14.00">False</text>
</g>
<!-- cluster_0_4&#45;&gt;cluster_0_1 -->
<g id="edge4" class="edge">
<title>cluster_0_4&#45;&gt;cluster_0_1</title>
<path fill="none" stroke="black" d="M76.41,-88.81C81.53,-80.35 87.81,-69.98 93.49,-60.61"/>
<polygon fill="black" stroke="black" points="96.5,-62.4 98.69,-52.03 90.51,-58.77 96.5,-62.4"/>
</g>
</g>
</svg>
