<?xml version="1.0" encoding="UTF-8" standalone="no"?>
<!DOCTYPE svg PUBLIC "-//W3C//DTD SVG 1.1//EN"
 "http://www.w3.org/Graphics/SVG/1.1/DTD/svg11.dtd">
<!-- Generated by graphviz version 5.0.0 (20220707.1540)
 -->
<!-- Title: if_else Pages: 1 -->
<svg width="182pt" height="261pt"
 viewBox="0.00 0.00 182.00 261.00" xmlns="http://www.w3.org/2000/svg" xmlns:xlink="http://www.w3.org/1999/xlink">
<g id="graph0" class="graph" transform="scale(1 1) rotate(0) translate(4 257)">
<title>if_else</title>
<polygon fill="white" stroke="transparent" points="-4,4 -4,-257 178,-257 178,4 -4,4"/>
<g id="clust1" class="cluster">
<title>cluster_2156583319376</title>
<polygon fill="none" stroke="black" points="8,-8 8,-245 166,-245 166,-8 8,-8"/>
<text text-anchor="middle" x="87" y="-229.8" font-family="Courier New" font-size="14.00">__main__</text>
</g>
<!-- cluster_2156583319376_0 -->
<g id="node1" class="node">
<title>cluster_2156583319376_0</title>
<polygon fill="white" stroke="black" points="99,-214 41,-214 41,-176 99,-176 99,-214"/>
<text text-anchor="start" x="49" y="-198.8" font-family="Courier New" font-size="14.00">x = 0</text>
<text text-anchor="start" x="49" y="-183.8" font-family="Courier New" font-size="14.00">x &gt; 0</text>
</g>
<!-- cluster_2156583319376_2 -->
<g id="node2" class="node">
<title>cluster_2156583319376_2</title>
<polygon fill="white" stroke="black" points="74,-125 16,-125 16,-89 74,-89 74,-125"/>
<text text-anchor="start" x="24" y="-103.3" font-family="Courier New" font-size="14.00">x = 4</text>
</g>
<!-- cluster_2156583319376_0&#45;&gt;cluster_2156583319376_2 -->
<g id="edge1" class="edge">
<title>cluster_2156583319376_0&#45;&gt;cluster_2156583319376_2</title>
<path fill="none" stroke="black" d="M64.7,-175.76C61.23,-163.82 56.63,-148.01 52.75,-134.66"/>
<polygon fill="black" stroke="black" points="56.11,-133.67 49.95,-125.04 49.38,-135.62 56.11,-133.67"/>
<text text-anchor="middle" x="71.5" y="-146.8" font-family="Times New Roman,serif" font-size="14.00">True</text>
</g>
<!-- cluster_2156583319376_3 -->
<g id="node4" class="node">
<title>cluster_2156583319376_3</title>
<polygon fill="white" stroke="black" points="158,-125 92,-125 92,-89 158,-89 158,-125"/>
<text text-anchor="start" x="100" y="-103.3" font-family="Courier New" font-size="14.00">x = &#45;1</text>
</g>
<!-- cluster_2156583319376_0&#45;&gt;cluster_2156583319376_3 -->
<g id="edge3" class="edge">
<title>cluster_2156583319376_0&#45;&gt;cluster_2156583319376_3</title>
<path fill="none" stroke="black" d="M81.66,-175.76C89.53,-163.47 100.01,-147.07 108.7,-133.49"/>
<polygon fill="black" stroke="black" points="111.66,-135.35 114.1,-125.04 105.76,-131.58 111.66,-135.35"/>
<text text-anchor="middle" x="117" y="-146.8" font-family="Times New Roman,serif" font-size="14.00">False</text>
</g>
<!-- cluster_2156583319376_1 -->
<g id="node3" class="node">
<title>cluster_2156583319376_1</title>
<polygon fill="black" stroke="black" points="112,-52 58,-52 58,-16 112,-16 112,-52"/>
</g>
<!-- cluster_2156583319376_2&#45;&gt;cluster_2156583319376_1 -->
<g id="edge2" class="edge">
<title>cluster_2156583319376_2&#45;&gt;cluster_2156583319376_1</title>
<path fill="none" stroke="black" d="M54.68,-88.81C59.4,-80.44 65.17,-70.2 70.41,-60.9"/>
<polygon fill="black" stroke="black" points="73.55,-62.46 75.41,-52.03 67.45,-59.02 73.55,-62.46"/>
</g>
<!-- cluster_2156583319376_3&#45;&gt;cluster_2156583319376_1 -->
<g id="edge4" class="edge">
<title>cluster_2156583319376_3&#45;&gt;cluster_2156583319376_1</title>
<path fill="none" stroke="black" d="M115.32,-88.81C110.6,-80.44 104.83,-70.2 99.59,-60.9"/>
<polygon fill="black" stroke="black" points="102.55,-59.02 94.59,-52.03 96.45,-62.46 102.55,-59.02"/>
</g>
</g>
</svg>
