<?xml version="1.0" encoding="UTF-8" standalone="no"?>
<!DOCTYPE svg PUBLIC "-//W3C//DTD SVG 1.1//EN"
 "http://www.w3.org/Graphics/SVG/1.1/DTD/svg11.dtd">
<!-- Generated by graphviz version 5.0.0 (20220707.1540)
 -->
<!-- Title: eee Pages: 1 -->
<svg width="131pt" height="243pt"
 viewBox="0.00 0.00 131.00 243.00" xmlns="http://www.w3.org/2000/svg" xmlns:xlink="http://www.w3.org/1999/xlink">
<g id="graph0" class="graph" transform="scale(1 1) rotate(0) translate(4 239)">
<title>eee</title>
<polygon fill="white" stroke="transparent" points="-4,4 -4,-239 127,-239 127,4 -4,4"/>
<g id="clust1" class="cluster">
<title>cluster_0</title>
<polygon fill="none" stroke="black" points="8,-8 8,-227 115,-227 115,-8 8,-8"/>
<text text-anchor="middle" x="61.5" y="-211.8" font-family="Courier New" font-size="14.00">MyClass.foo</text>
</g>
<!-- cluster_0_0 -->
<g id="node1" class="node">
<title>cluster_0_0</title>
<polygon fill="white" stroke="black" points="88,-196 34,-196 34,-160 88,-160 88,-196"/>
<text text-anchor="start" x="42" y="-174.3" font-family="Courier New" font-size="14.00">self</text>
</g>
<!-- cluster_0_2 -->
<g id="node2" class="node">
<title>cluster_0_2</title>
<polygon fill="white" stroke="black" points="88,-124 34,-124 34,-88 88,-88 88,-124"/>
<text text-anchor="start" x="42" y="-102.3" font-family="Courier New" font-size="14.00">pass</text>
</g>
<!-- cluster_0_0&#45;&gt;cluster_0_2 -->
<g id="edge1" class="edge">
<title>cluster_0_0&#45;&gt;cluster_0_2</title>
<path fill="none" stroke="black" d="M61,-159.7C61,-151.98 61,-142.71 61,-134.11"/>
<polygon fill="black" stroke="black" points="64.5,-134.1 61,-124.1 57.5,-134.1 64.5,-134.1"/>
</g>
<!-- cluster_0_1 -->
<g id="node3" class="node">
<title>cluster_0_1</title>
<polygon fill="black" stroke="black" points="88,-52 34,-52 34,-16 88,-16 88,-52"/>
</g>
<!-- cluster_0_2&#45;&gt;cluster_0_1 -->
<g id="edge2" class="edge">
<title>cluster_0_2&#45;&gt;cluster_0_1</title>
<path fill="none" stroke="black" d="M61,-87.7C61,-79.98 61,-70.71 61,-62.11"/>
<polygon fill="black" stroke="black" points="64.5,-62.1 61,-52.1 57.5,-62.1 64.5,-62.1"/>
</g>
</g>
</svg>
