<?xml version="1.0" encoding="utf-8"?>
<!-- Generator: Adobe Illustrator 16.0.4, SVG Export Plug-In . SVG Version: 6.00 Build 0)  -->
<!DOCTYPE svg PUBLIC "-//W3C//DTD SVG 1.1//EN" "http://www.w3.org/Graphics/SVG/1.1/DTD/svg11.dtd">
<svg version="1.1" xmlns="http://www.w3.org/2000/svg" xmlns:xlink="http://www.w3.org/1999/xlink" x="0px" y="0px"
	 width="150px" height="150px" viewBox="0 0 274.724 274.724" enable-background="new 0 0 274.724 274.724"
	 xml:space="preserve">
<g id="original">
	<radialGradient id="SVGID_20_" cx="137.3623" cy="137.3623" r="125.7495" gradientUnits="userSpaceOnUse">
		<stop  offset="0" style="stop-color:#6EDBE4"/>
		<stop  offset="0.2379" style="stop-color:#66D6E3"/>
		<stop  offset="0.6036" style="stop-color:#51C6DF"/>
		<stop  offset="1" style="stop-color:#32B1D9"/>
	</radialGradient>
	<path fill="url(#SVGID_20_)" d="M137.712,194.87h94.201c14.349,0,19.883-9.061,26.205-28.098
		c6.106-18.318,6.072-35.936-0.117-60.812c-4.755-19.154-12.8-27.693-26.088-27.693h-31.425c-0.039,0-0.076-0.006-0.115-0.006
		c-0.308,0.053-0.622,0.086-0.945,0.086c-3.037,0-5.5-2.463-5.5-5.5V40.909c0-14.949-13.497-25.021-26.829-27.244
		c-10.09-1.68-21.071-2.514-31.812-2.49c-10.139,0.049-20.202,0.906-29.101,2.48c-24.231,4.281-26.884,11.957-26.884,27.254v26.438
		h57.35c3.038,0,5.5,2.463,5.5,5.5s-2.462,5.5-5.5,5.5H50.215c-17.09,0-29.768,10.336-33.915,27.646
		c-5.663,23.5-5.663,37.82-0.002,61.305c3.03,12.617,10.355,27.652,28.057,27.652h29.447c0.039,0,0.076,0.006,0.115,0.006
		c0.308-0.053,0.622-0.086,0.945-0.086c3.038,0,5.5,2.463,5.5,5.5v31.938c0,16.166,17.215,23.645,27.477,26.662
		c20.777,6.109,38.629,6.107,59.692-0.006c18.22-5.275,27.457-14.244,27.457-26.656V205.87h-57.276c-3.037,0-5.5-2.463-5.5-5.5
		S134.675,194.87,137.712,194.87z M105.387,51.81c-6.077,0-10.999-4.904-10.999-10.967c0-6.086,4.922-11.033,10.999-11.033
		c6.056,0,11.001,4.947,11.001,11.033C116.388,46.905,111.443,51.81,105.387,51.81z M169.988,220.31c6.056,0,11,4.947,11,11.033
		c0,6.062-4.944,10.967-11,10.967c-6.078,0-11-4.904-11-10.967C158.988,225.257,163.91,220.31,169.988,220.31z"/>
	<g>
		<g>
			<g>
				<path fill="#FFFFFF" d="M42.107,102.762h17.447c8.874,0,15.257,1.58,19.148,4.738c3.892,3.16,5.837,8.287,5.837,15.38
					c0,7.094-1.945,12.22-5.837,15.379c-3.892,3.16-10.274,4.739-19.148,4.739h-4.739v24.081H42.107V102.762z M54.815,113.445
					v18.868h5.213c4.164,0,7.087-0.702,8.767-2.11c1.68-1.406,2.521-3.848,2.521-7.323c0-3.475-0.841-5.916-2.521-7.323
					s-4.603-2.111-8.767-2.111H54.815z"/>
				<path fill="#FFFFFF" d="M120.372,172.291c-1.694,4.538-3.726,7.848-6.096,9.931c-2.369,2.082-5.248,3.123-8.637,3.123H95.213
					v-9.606h5.127c2.585,0,4.48-0.439,5.687-1.314c1.206-0.876,2.427-2.907,3.661-6.096l0.948-2.585l-18.352-40.925h13.268
					l11.029,26.05l10.554-26.05h13.269L120.372,172.291z"/>
				<path fill="#FFFFFF" d="M169.78,167.079h-12.708v-53.202h-17.768v-11.115h48.243v11.115H169.78V167.079z"/>
				<path fill="#FFFFFF" d="M204.273,102.762h15.552l17.36,64.317h-12.708l-3.963-15.896h-17.017l-3.877,15.896h-12.709
					L204.273,102.762z M212.027,114.394l-5.988,26.321h12.02L212.027,114.394z"/>
			</g>
		</g>
	</g>
	<g>
		<g>
			<defs>
				<path id="SVGID_41_" d="M263.383,104.649c-4.514-18.184-13.136-31.865-31.425-31.865h-31.425V40.847
					c0-17.031-14.368-29.826-31.425-32.67c-10.797-1.797-21.999-2.615-32.743-2.564c-10.745,0.051-21.005,0.967-30.033,2.564
					c-26.596,4.699-31.425,14.533-31.425,32.67v31.938H51.321c-18.266,0-34.26,10.979-39.264,31.865
					c-5.77,23.939-6.026,38.877,0,63.875c4.468,18.607,15.137,31.863,33.403,31.863h29.447v31.938
					c0,17.033,14.811,27.053,31.425,31.939c19.895,5.85,38.973,6.908,62.776,0c15.822-4.582,31.425-13.803,31.425-31.939v-31.938
					h31.425c18.266,0,25.073-12.74,31.425-31.863C269.946,148.837,269.667,129.905,263.383,104.649z"/>
			</defs>
			<clipPath id="SVGID_42_">
				<use xlink:href="#SVGID_41_"  overflow="visible"/>
			</clipPath>
		</g>
		<g>
			<path fill="#002A5C" d="M268.72,103.323c-6.02-24.25-18.045-36.039-36.763-36.039h-26.985V40.927
				c0-18.594-15.148-34.615-36.021-38.096c-10.695-1.779-22.34-2.672-33.672-2.639c-10.754,0.051-21.462,0.967-30.965,2.648
				c-30.082,5.316-35.968,17.99-35.968,38.086v26.438H50.259c-22.186,0-39.28,13.826-44.61,36.076
				c-6.138,25.467-6.138,40.994-0.001,66.449c5.586,23.266,19.349,36.078,38.751,36.078h25.008v26.357
				c0,17.289,12.562,30.506,35.374,37.215c11.319,3.33,22.058,4.994,32.832,4.992c10.768,0,21.572-1.662,33.025-4.984
				c29.254-8.473,35.395-24.918,35.395-37.223v-26.438h25.925c22.895,0,30.656-17.602,36.643-35.625
				C275.333,150.065,275.369,130.046,268.72,103.323z M258.163,166.79c-6.322,19.037-11.856,28.098-26.205,28.098h-94.201
				c-3.037,0-5.5,2.463-5.5,5.5s2.463,5.5,5.5,5.5h57.276v26.438c0,12.412-9.237,21.381-27.457,26.656
				c-21.063,6.113-38.915,6.115-59.692,0.006c-10.262-3.018-27.477-10.496-27.477-26.662v-31.938c0-3.037-2.462-5.5-5.5-5.5
				c-0.323,0-0.638,0.033-0.945,0.086c-0.039,0-0.076-0.006-0.115-0.006H44.399c-17.701,0-25.026-15.035-28.057-27.652
				c-5.661-23.484-5.661-37.805,0.002-61.305C20.492,88.7,33.169,78.364,50.259,78.364h86.437c3.038,0,5.5-2.463,5.5-5.5
				s-2.462-5.5-5.5-5.5h-57.35V40.927c0-15.297,2.652-22.973,26.884-27.254c8.898-1.574,18.962-2.432,29.101-2.48
				c10.741-0.023,21.723,0.811,31.812,2.49c13.332,2.223,26.829,12.295,26.829,27.244v31.938c0,3.037,2.463,5.5,5.5,5.5
				c0.323,0,0.638-0.033,0.945-0.086c0.039,0,0.076,0.006,0.115,0.006h31.425c13.288,0,21.333,8.539,26.088,27.693
				C264.235,130.854,264.269,148.472,258.163,166.79z"/>
			<path fill="#002A5C" d="M105.431,29.827c-6.077,0-10.999,4.947-10.999,11.033c0,6.062,4.922,10.967,10.999,10.967
				c6.056,0,11.001-4.904,11.001-10.967C116.432,34.774,111.487,29.827,105.431,29.827z"/>
			<path fill="#002A5C" d="M170.032,242.327c6.056,0,11-4.904,11-10.967c0-6.086-4.944-11.033-11-11.033
				c-6.078,0-11,4.947-11,11.033C159.032,237.423,163.954,242.327,170.032,242.327z"/>
		</g>
	</g>
</g>
</svg>
